<svg width="49" height="70" viewBox="0 0 49 70" fill="none" xmlns="http://www.w3.org/2000/svg">
<path d="M35 52.5C36.3125 48.1387 39.0332 44.4199 41.7266 40.7148C42.4375 39.7441 43.1484 38.7734 43.832 37.7891C46.5391 33.8926 48.125 29.1758 48.125 24.0762C48.125 10.7734 37.3516 0 24.0625 0C10.7734 0 0 10.7734 0 24.0625C0 29.1621 1.58594 33.8926 4.29297 37.7754C4.97656 38.7598 5.6875 39.7305 6.39844 40.7012C9.10547 44.4062 11.8262 48.1387 13.125 52.4863H35V52.5ZM24.0625 70C30.1055 70 35 65.1055 35 59.0625V56.875H13.125V59.0625C13.125 65.1055 18.0195 70 24.0625 70ZM13.125 24.0625C13.125 25.2656 12.1406 26.25 10.9375 26.25C9.73438 26.25 8.75 25.2656 8.75 24.0625C8.75 15.5996 15.5996 8.75 24.0625 8.75C25.2656 8.75 26.25 9.73438 26.25 10.9375C26.25 12.1406 25.2656 13.125 24.0625 13.125C18.0195 13.125 13.125 18.0195 13.125 24.0625Z" fill="white"/>
</svg>
