<svg width="83" height="64" viewBox="0 0 83 64" fill="none" xmlns="http://www.w3.org/2000/svg">
<path d="M4.57143 0C2.04286 0 0 2.04286 0 4.57143C0 7.1 2.04286 9.14286 4.57143 9.14286H10.2857V18.2857H0V36.5714C7.57143 36.5714 13.7143 42.7143 13.7143 50.2857V59.4286C13.7143 61.9571 15.7571 64 18.2857 64H22.8571C25.3857 64 27.4286 61.9571 27.4286 59.4286V50.2857C27.4286 42.7143 33.5714 36.5714 41.1429 36.5714C48.7143 36.5714 54.8571 42.7143 54.8571 50.2857V59.4286C54.8571 61.9571 56.9 64 59.4286 64H64C66.5286 64 68.5714 61.9571 68.5714 59.4286V50.2857C68.5714 42.7143 74.7143 36.5714 82.2857 36.5714V18.2857H72V9.14286H77.7143C80.2429 9.14286 82.2857 7.1 82.2857 4.57143C82.2857 2.04286 80.2429 0 77.7143 0H4.57143ZM65.1429 9.14286V18.2857H53.7143V9.14286H65.1429ZM46.8571 9.14286V18.2857H35.4286V9.14286H46.8571ZM28.5714 9.14286V18.2857H17.1429V9.14286H28.5714Z" fill="white"/>
</svg>
