<svg width="90" height="70" viewBox="0 0 90 70" fill="none" xmlns="http://www.w3.org/2000/svg">
<path d="M28.6094 31.7656C33.875 35 38.4375 39.2812 42.0156 44.3438C43.1094 45.8906 44.1094 47.5156 45 49.1875C45.8906 47.5 46.8906 45.8906 47.9844 44.3438C51.5625 39.2812 56.125 35 61.3906 31.7656C68.375 27.4688 76.5781 25 85.3125 25H86.8594C88.5938 25 90 26.4063 90 28.1406C90 51.2656 71.2656 70 48.1406 70H45H41.8594C18.7344 70 0 51.2656 0 28.1406C0 26.4063 1.40625 25 3.14063 25H4.6875C13.4219 25 21.625 27.4688 28.6094 31.7656ZM47.1094 0.875C49.5625 3.51562 56.6562 12.0937 60.2969 26.5938C54.3594 29.9688 49.1406 34.5312 45 39.9688C40.8594 34.5312 35.6406 29.9844 29.7031 26.5938C33.3281 12.0937 40.4219 3.51562 42.8906 0.875C43.4375 0.296875 44.2031 0 45 0C45.7969 0 46.5625 0.296875 47.1094 0.875Z" fill="white"/>
</svg>
