<svg width="88" height="70" viewBox="0 0 88 70" fill="none" xmlns="http://www.w3.org/2000/svg">
<path d="M19.6875 0C22.5883 0 25.3703 1.15234 27.4215 3.20352C29.4727 5.2547 30.625 8.03669 30.625 10.9375C30.625 13.8383 29.4727 16.6203 27.4215 18.6715C25.3703 20.7227 22.5883 21.875 19.6875 21.875C16.7867 21.875 14.0047 20.7227 11.9535 18.6715C9.90234 16.6203 8.75 13.8383 8.75 10.9375C8.75 8.03669 9.90234 5.2547 11.9535 3.20352C14.0047 1.15234 16.7867 0 19.6875 0ZM70 0C72.9008 0 75.6828 1.15234 77.734 3.20352C79.7852 5.2547 80.9375 8.03669 80.9375 10.9375C80.9375 13.8383 79.7852 16.6203 77.734 18.6715C75.6828 20.7227 72.9008 21.875 70 21.875C67.0992 21.875 64.3172 20.7227 62.266 18.6715C60.2148 16.6203 59.0625 13.8383 59.0625 10.9375C59.0625 8.03669 60.2148 5.2547 62.266 3.20352C64.3172 1.15234 67.0992 0 70 0ZM0 40.8379C0 32.7852 6.53516 26.25 14.5879 26.25H20.4258C22.5996 26.25 24.6641 26.7285 26.5234 27.5762C26.3457 28.5605 26.2637 29.5859 26.2637 30.625C26.2637 35.8477 28.5605 40.5371 32.1836 43.75C32.1562 43.75 32.1289 43.75 32.0879 43.75H2.91211C1.3125 43.75 0 42.4375 0 40.8379ZM55.4121 43.75C55.3848 43.75 55.3574 43.75 55.3164 43.75C58.9531 40.5371 61.2363 35.8477 61.2363 30.625C61.2363 29.5859 61.1406 28.5742 60.9766 27.5762C62.8359 26.7148 64.9004 26.25 67.0742 26.25H72.9121C80.9648 26.25 87.5 32.7852 87.5 40.8379C87.5 42.4512 86.1875 43.75 84.5879 43.75H55.4121ZM30.625 30.625C30.625 27.144 32.0078 23.8056 34.4692 21.3442C36.9306 18.8828 40.269 17.5 43.75 17.5C47.231 17.5 50.5694 18.8828 53.0308 21.3442C55.4922 23.8056 56.875 27.144 56.875 30.625C56.875 34.106 55.4922 37.4444 53.0308 39.9058C50.5694 42.3672 47.231 43.75 43.75 43.75C40.269 43.75 36.9306 42.3672 34.4692 39.9058C32.0078 37.4444 30.625 34.106 30.625 30.625ZM17.5 66.3496C17.5 56.2871 25.6621 48.125 35.7246 48.125H51.7754C61.8379 48.125 70 56.2871 70 66.3496C70 68.3594 68.373 70 66.3496 70H21.1504C19.1406 70 17.5 68.373 17.5 66.3496Z" fill="white"/>
</svg>
