<svg width="79" height="70" viewBox="0 0 79 70" fill="none" xmlns="http://www.w3.org/2000/svg">
<path d="M20.2344 10.4727C20.2344 4.68945 24.9238 0 30.707 0C33.4824 0 36.1484 1.10742 38.1035 3.0625L39.375 4.33398L40.6465 3.0625C42.6016 1.10742 45.2676 0 48.043 0C53.8262 0 58.5156 4.68945 58.5156 10.4727C58.5156 13.248 57.4082 15.9141 55.4531 17.8691L41.3027 32.0059C40.2363 33.0723 38.5 33.0723 37.4336 32.0059L23.2969 17.8691C21.3418 15.9141 20.2344 13.248 20.2344 10.4727ZM77.6836 45.9785C79.4746 48.4121 78.9551 51.8301 76.5215 53.6211L59.2129 66.377C56.0137 68.7285 52.1582 70 48.1797 70H26.25H4.375C1.95508 70 0 68.0449 0 65.625V56.875C0 54.4551 1.95508 52.5 4.375 52.5H9.40625L15.5449 47.5781C18.6484 45.0898 22.5039 43.75 26.4824 43.75H37.1875H39.375H48.125C50.5449 43.75 52.5 45.7051 52.5 48.125C52.5 50.5449 50.5449 52.5 48.125 52.5H39.375H37.1875C35.9844 52.5 35 53.4844 35 54.6875C35 55.8906 35.9844 56.875 37.1875 56.875H53.6758L70.041 44.8164C72.4746 43.0254 75.8926 43.5449 77.6836 45.9785ZM26.4688 52.5H26.3457C26.3867 52.5 26.4277 52.5 26.4688 52.5Z" fill="white"/>
</svg>
