<svg width="80" height="70" viewBox="0 0 80 70" fill="none" xmlns="http://www.w3.org/2000/svg">
<path d="M10 5C10 2.23438 7.76562 0 5 0C2.23438 0 0 2.23438 0 5V57.5C0 64.4062 5.59375 70 12.5 70H75C77.7656 70 80 67.7656 80 65C80 62.2344 77.7656 60 75 60H12.5C11.125 60 10 58.875 10 57.5V5ZM73.5312 18.5312C75.4844 16.5781 75.4844 13.4062 73.5312 11.4531C71.5781 9.5 68.4062 9.5 66.4531 11.4531L50 27.9219L41.0312 18.9531C39.0781 17 35.9062 17 33.9531 18.9531L16.4531 36.4531C14.5 38.4062 14.5 41.5781 16.4531 43.5312C18.4062 45.4844 21.5781 45.4844 23.5312 43.5312L37.5 29.5781L46.4688 38.5469C48.4219 40.5 51.5938 40.5 53.5469 38.5469L73.5469 18.5469L73.5312 18.5312Z" fill="white"/>
</svg>
