<svg width="79" height="70" viewBox="0 0 79 70" fill="none" xmlns="http://www.w3.org/2000/svg">
<path d="M54.6875 0H24.0625C20.4395 0 17.4863 2.98047 17.623 6.58984C17.6504 7.31445 17.6777 8.03906 17.7188 8.75H3.28125C1.46289 8.75 0 10.2129 0 12.0312C0 24.6914 4.58008 33.4961 10.7324 39.4707C16.7891 45.3633 24.1719 48.3301 29.6133 49.834C32.8125 50.7227 35 53.3887 35 56.0684C35 58.9258 32.6758 61.25 29.8184 61.25H26.25C23.8301 61.25 21.875 63.2051 21.875 65.625C21.875 68.0449 23.8301 70 26.25 70H52.5C54.9199 70 56.875 68.0449 56.875 65.625C56.875 63.2051 54.9199 61.25 52.5 61.25H48.9316C46.0742 61.25 43.75 58.9258 43.75 56.0684C43.75 53.3887 45.9238 50.709 49.1367 49.834C54.5918 48.3301 61.9746 45.3633 68.0312 39.4707C74.1699 33.4961 78.75 24.6914 78.75 12.0312C78.75 10.2129 77.2871 8.75 75.4688 8.75H61.0312C61.0723 8.03906 61.0996 7.32812 61.127 6.58984C61.2637 2.98047 58.3105 0 54.6875 0ZM6.68555 15.3125H18.2246C19.4688 27.6309 22.2168 35.8613 25.3203 41.3711C21.916 39.8672 18.375 37.748 15.3125 34.7676C10.9375 30.5156 7.38281 24.377 6.69922 15.3125H6.68555ZM63.4512 34.7676C60.3887 37.748 56.8477 39.8672 53.4434 41.3711C56.5469 35.8613 59.2949 27.6309 60.5391 15.3125H72.0781C71.3809 24.377 67.8262 30.5156 63.4648 34.7676H63.4512Z" fill="white"/>
</svg>
