<svg width="73" height="70" viewBox="0 0 73 70" fill="none" xmlns="http://www.w3.org/2000/svg">
<path d="M40.0208 2.46066C39.2963 0.956924 37.7652 0 36.0838 0C34.4023 0 32.8849 0.956924 32.1467 2.46066L23.3567 20.5465L3.72605 23.4446C2.08561 23.6907 0.718574 24.839 0.212771 26.4111C-0.293031 27.9832 0.117079 29.7193 1.29273 30.8813L15.5372 44.9754L12.1743 64.8931C11.9009 66.5336 12.5844 68.2013 13.9378 69.1719C15.2912 70.1425 17.082 70.2656 18.5584 69.4864L36.0974 60.1222L53.6365 69.4864C55.1129 70.2656 56.9037 70.1562 58.2571 69.1719C59.6104 68.1877 60.2939 66.5336 60.0205 64.8931L56.644 44.9754L70.8885 30.8813C72.0641 29.7193 72.4879 27.9832 71.9684 26.4111C71.4489 24.839 70.0956 23.6907 68.4551 23.4446L48.8109 20.5465L40.0208 2.46066Z" fill="white"/>
</svg>
