<svg width="16" height="16" viewBox="0 0 16 16" fill="none" xmlns="http://www.w3.org/2000/svg">
<path d="M8.00344 3.89911C5.73201 3.89911 3.89987 5.73125 3.89987 8.00268C3.89987 10.2741 5.73201 12.1062 8.00344 12.1062C10.2749 12.1062 12.107 10.2741 12.107 8.00268C12.107 5.73125 10.2749 3.89911 8.00344 3.89911ZM8.00344 10.6705C6.53558 10.6705 5.33558 9.47411 5.33558 8.00268C5.33558 6.53125 6.53201 5.33482 8.00344 5.33482C9.47487 5.33482 10.6713 6.53125 10.6713 8.00268C10.6713 9.47411 9.4713 10.6705 8.00344 10.6705ZM13.232 3.73125C13.232 4.26339 12.8034 4.68839 12.2749 4.68839C11.7427 4.68839 11.3177 4.25982 11.3177 3.73125C11.3177 3.20268 11.7463 2.77411 12.2749 2.77411C12.8034 2.77411 13.232 3.20268 13.232 3.73125ZM15.9499 4.70268C15.8892 3.42054 15.5963 2.28482 14.657 1.34911C13.7213 0.413393 12.5856 0.120536 11.3034 0.05625C9.98201 -0.01875 6.0213 -0.01875 4.69987 0.05625C3.4213 0.116964 2.28559 0.409821 1.3463 1.34554C0.407014 2.28125 0.117728 3.41696 0.0534424 4.69911C-0.0215576 6.02054 -0.0215576 9.98125 0.0534424 11.3027C0.114157 12.5848 0.407014 13.7205 1.3463 14.6563C2.28559 15.592 3.41773 15.8848 4.69987 15.9491C6.0213 16.0241 9.98201 16.0241 11.3034 15.9491C12.5856 15.8884 13.7213 15.5955 14.657 14.6563C15.5927 13.7205 15.8856 12.5848 15.9499 11.3027C16.0249 9.98125 16.0249 6.02411 15.9499 4.70268ZM14.2427 12.7205C13.9642 13.4205 13.4249 13.9598 12.7213 14.242C11.6677 14.6598 9.16773 14.5634 8.00344 14.5634C6.83916 14.5634 4.33558 14.6562 3.28558 14.242C2.58558 13.9634 2.0463 13.4241 1.76416 12.7205C1.3463 11.667 1.44273 9.16696 1.44273 8.00268C1.44273 6.83839 1.34987 4.33482 1.76416 3.28482C2.04273 2.58482 2.58201 2.04554 3.28558 1.76339C4.33916 1.34554 6.83916 1.44196 8.00344 1.44196C9.16773 1.44196 11.6713 1.34911 12.7213 1.76339C13.4213 2.04196 13.9606 2.58125 14.2427 3.28482C14.6606 4.33839 14.5642 6.83839 14.5642 8.00268C14.5642 9.16696 14.6606 11.6705 14.2427 12.7205Z" fill="#FFE66D"/>
</svg>
