<svg width="140" height="140" viewBox="0 0 140 140" fill="none" xmlns="http://www.w3.org/2000/svg">
<g clip-path="url(#clip0_110_49)">
<path d="M70 0C51.4391 0 33.6219 7.37953 20.5078 20.5023C7.38032 33.6304 0.00375647 51.4345 0 70C0 88.5577 7.38281 106.375 20.5078 119.498C33.6219 132.62 51.4391 140 70 140C88.5609 140 106.378 132.62 119.492 119.498C132.617 106.375 140 88.5577 140 70C140 51.4423 132.617 33.6252 119.492 20.5023C106.378 7.37953 88.5609 0 70 0Z" fill="url(#paint0_linear_110_49)"/>
<path d="M31.6862 69.2603C52.0955 60.3703 65.7018 54.5092 72.5049 51.6771C91.9518 43.591 95.9877 42.1867 98.6237 42.1391C99.2033 42.1298 100.494 42.2731 101.336 42.9539C102.036 43.5281 102.233 44.3047 102.331 44.8499C102.419 45.3946 102.539 46.636 102.441 47.6051C101.391 58.6739 96.8299 85.5342 94.5112 97.9318C93.5377 103.177 91.6018 104.936 89.7315 105.108C85.6627 105.482 82.5784 102.422 78.6409 99.8415C72.483 95.8023 69.0049 93.2888 63.0221 89.3481C56.1096 84.7937 60.594 82.2901 64.5315 78.1995C65.5596 77.1287 83.4752 60.8373 83.8143 59.3596C83.858 59.1748 83.9018 58.4857 83.4862 58.1226C83.0815 57.7584 82.4799 57.8831 82.0424 57.9815C81.419 58.1215 71.5862 64.6271 52.5112 77.4973C49.7221 79.4157 47.1955 80.3509 44.9205 80.3017C42.4268 80.2481 37.6143 78.8885 34.0377 77.727C29.6627 76.3018 26.1737 75.5482 26.4799 73.1278C26.633 71.8678 28.3721 70.5782 31.6862 69.2603Z" fill="white"/>
</g>
<defs>
<linearGradient id="paint0_linear_110_49" x1="7000" y1="0" x2="7000" y2="14000" gradientUnits="userSpaceOnUse">
<stop stop-color="#2AABEE"/>
<stop offset="1" stop-color="#229ED9"/>
</linearGradient>
<clipPath id="clip0_110_49">
<rect width="140" height="140" fill="white"/>
</clipPath>
</defs>
</svg>
