<svg width="22" height="22" viewBox="0 0 22 22" fill="none" xmlns="http://www.w3.org/2000/svg">
<path d="M7.7 19.25C6.30972 19.25 5.137 18.7727 4.18183 17.8182C3.22667 16.8636 2.74939 15.6909 2.75 14.3C2.75 13.7194 2.84931 13.1542 3.04792 12.6042C3.24653 12.0542 3.52917 11.5576 3.89583 11.1146L7.15 7.19583L5.59167 4.07917C5.43889 3.77361 5.4505 3.47569 5.6265 3.18542C5.8025 2.89514 6.06589 2.75 6.41667 2.75H15.5833C15.9347 2.75 16.1984 2.89514 16.3744 3.18542C16.5504 3.47569 16.5617 3.77361 16.4083 4.07917L14.85 7.19583L18.1042 11.1146C18.4708 11.5576 18.7535 12.0542 18.9521 12.6042C19.1507 13.1542 19.25 13.7194 19.25 14.3C19.25 15.6903 18.7687 16.863 17.8062 17.8182C16.8438 18.7733 15.675 19.2506 14.3 19.25H7.7ZM11 14.6667C10.4958 14.6667 10.0644 14.4873 9.70567 14.1286C9.34695 13.7699 9.16728 13.3381 9.16667 12.8333C9.16606 12.3286 9.34572 11.8971 9.70567 11.539C10.0656 11.1809 10.4971 11.0012 11 11C11.5029 10.9988 11.9347 11.1784 12.2953 11.539C12.6558 11.8996 12.8352 12.331 12.8333 12.8333C12.8315 13.3357 12.6521 13.7674 12.2953 14.1286C11.9384 14.4897 11.5066 14.6691 11 14.6667ZM8.82292 6.41667H13.1771L14.0938 4.58333H7.90625L8.82292 6.41667ZM7.7 17.4167H14.3C15.1708 17.4167 15.9081 17.1151 16.5119 16.5119C17.1157 15.9088 17.4173 15.1714 17.4167 14.3C17.4167 13.9333 17.3516 13.5783 17.2214 13.2348C17.0913 12.8914 16.9119 12.5819 16.6833 12.3063L13.3146 8.25H8.70833L5.31667 12.2833C5.0875 12.5583 4.90814 12.8715 4.77858 13.2229C4.64903 13.5743 4.58395 13.9333 4.58333 14.3C4.58333 15.1708 4.88522 15.9081 5.489 16.5119C6.09278 17.1157 6.82978 17.4173 7.7 17.4167Z" fill="#2B2B2B" fill-opacity="0.9"/>
</svg>
