<svg width="23" height="24" viewBox="0 0 23 24" fill="none" xmlns="http://www.w3.org/2000/svg">
<g clip-path="url(#clip0_18_147)">
<path d="M11.2501 10.5C10.2556 10.5 9.30191 10.1049 8.59872 9.40165C7.89553 8.69839 7.50049 7.74456 7.50049 6.75C7.50049 5.75544 7.89553 4.80161 8.59872 4.09835C9.30191 3.39509 10.2556 3 11.2501 3C12.2445 3 13.1983 3.39509 13.9015 4.09835C14.6046 4.80161 14.9997 5.75544 14.9997 6.75C14.9997 7.74456 14.6046 8.69839 13.9015 9.40165C13.1983 10.1049 12.2445 10.5 11.2501 10.5ZM11.2501 4.5C10.0052 4.5 9.00033 5.505 9.00033 6.75C9.00033 7.995 10.0052 9 11.2501 9C12.495 9 13.4998 7.995 13.4998 6.75C13.4998 5.505 12.495 4.5 11.2501 4.5Z" fill="#2B2B2B" fill-opacity="0.9"/>
<path d="M20.2493 16.5C19.8293 16.5 19.4994 16.17 19.4994 15.75C19.4994 15.33 19.8293 15 20.2493 15C20.6693 15 20.9992 14.67 20.9992 14.25C20.9992 13.2554 20.6042 12.3016 19.901 11.5983C19.1978 10.8951 18.2441 10.5 17.2496 10.5H15.7498C15.3298 10.5 14.9999 10.17 14.9999 9.75C14.9999 9.33 15.3298 9 15.7498 9C16.9947 9 17.9995 7.995 17.9995 6.75C17.9995 5.505 16.9947 4.5 15.7498 4.5C15.3298 4.5 14.9999 4.17 14.9999 3.75C14.9999 3.33 15.3298 3 15.7498 3C16.7442 3 17.698 3.39509 18.4012 4.09835C19.1043 4.80161 19.4994 5.75544 19.4994 6.75C19.4994 7.68 19.1694 8.52 18.5995 9.18C20.8342 9.78 22.4991 11.82 22.4991 14.25C22.4991 15.495 21.4942 16.5 20.2493 16.5ZM2.25122 16.5C1.00636 16.5 0.00146484 15.495 0.00146484 14.25C0.00146484 11.82 1.65129 9.78 3.90105 9.18C3.34611 8.52 3.00114 7.68 3.00114 6.75C3.00114 5.75544 3.39619 4.80161 4.09938 4.09835C4.80256 3.39509 5.75629 3 6.75074 3C7.1707 3 7.50066 3.33 7.50066 3.75C7.50066 4.17 7.1707 4.5 6.75074 4.5C5.50588 4.5 4.50099 5.505 4.50099 6.75C4.50099 7.995 5.50588 9 6.75074 9C7.1707 9 7.50066 9.33 7.50066 9.75C7.50066 10.17 7.1707 10.5 6.75074 10.5H5.25091C4.25645 10.5 3.30272 10.8951 2.59954 11.5983C1.89635 12.3016 1.5013 13.2554 1.5013 14.25C1.5013 14.67 1.83127 15 2.25122 15C2.67118 15 3.00114 15.33 3.00114 15.75C3.00114 16.17 2.67118 16.5 2.25122 16.5ZM15.7498 21H6.75074C5.50588 21 4.50099 19.995 4.50099 18.75V17.25C4.50099 14.355 6.85573 12 9.75043 12H12.7501C15.6448 12 17.9995 14.355 17.9995 17.25V18.75C17.9995 19.995 16.9947 21 15.7498 21ZM9.75043 13.5C8.75597 13.5 7.80224 13.8951 7.09906 14.5983C6.39587 15.3016 6.00082 16.2554 6.00082 17.25V18.75C6.00082 19.17 6.33079 19.5 6.75074 19.5H15.7498C16.1697 19.5 16.4997 19.17 16.4997 18.75V17.25C16.4997 16.2554 16.1047 15.3016 15.4015 14.5983C14.6983 13.8951 13.7446 13.5 12.7501 13.5H9.75043Z" fill="#2B2B2B" fill-opacity="0.9"/>
</g>
<defs>
<clipPath id="clip0_18_147">
<rect width="22.5" height="24" fill="white"/>
</clipPath>
</defs>
</svg>
