<svg width="162" height="162" viewBox="0 0 162 162" fill="none" xmlns="http://www.w3.org/2000/svg">
<path d="M0 0V58.6667H14.6667V73.3333H29.3333V58.6667H58.6667V0H0ZM58.6667 58.6667V73.3333H73.3333V88H44V102.667H0V161.333H58.6667V102.667H102.667V88H88V73.3333H117.333V58.6667H132V73.3333H146.667V58.6667H161.333V0H102.667V58.6667H58.6667ZM146.667 73.3333V88H161.333V73.3333H146.667ZM146.667 88H132V102.667H146.667V88ZM146.667 102.667V117.333H161.333V102.667H146.667ZM146.667 117.333H132V102.667H117.333V117.333H80.6667V161.333H95.3333V132H124.667V146.667H139.333V132H146.667V117.333ZM124.667 146.667H110V161.333H124.667V146.667ZM132 88V73.3333H117.333V88H132ZM44 88V73.3333H29.3333V88H44ZM14.6667 73.3333H0V88H14.6667V73.3333ZM73.3333 0V29.3333H66V44H73.3333V51.3333H88V29.3333H95.3333V14.6667H88V0H73.3333ZM14.6667 14.6667H44V44H14.6667V14.6667ZM117.333 14.6667H146.667V44H117.333V14.6667ZM22 22V36.6667H36.6667V22H22ZM124.667 22V36.6667H139.333V22H124.667ZM14.6667 117.333H44V146.667H14.6667V117.333ZM22 124.667V139.333H36.6667V124.667H22ZM146.667 146.667V161.333H161.333V146.667H146.667Z" fill="black"/>
</svg>
