<svg width="16" height="16" viewBox="0 0 16 16" fill="none" xmlns="http://www.w3.org/2000/svg">
<g clip-path="url(#clip0_18_513)">
<path d="M8 0C5.87875 0 3.8425 0.843375 2.34375 2.34313C0.843465 3.84348 0.000429311 5.87823 0 8C0 10.1209 0.84375 12.1571 2.34375 13.6569C3.8425 15.1566 5.87875 16 8 16C10.1213 16 12.1575 15.1566 13.6562 13.6569C15.1562 12.1571 16 10.1209 16 8C16 5.87913 15.1562 3.84288 13.6562 2.34313C12.1575 0.843375 10.1213 0 8 0Z" fill="#FFE66D"/>
<path d="M3.62168 7.91504C5.95418 6.89904 7.50918 6.22921 8.28668 5.90554C10.5092 4.98141 10.9704 4.82091 11.2717 4.81548C11.3379 4.81441 11.4854 4.83079 11.5817 4.9086C11.6617 4.97423 11.6842 5.06298 11.6954 5.12529C11.7054 5.18754 11.7192 5.32941 11.7079 5.44016C11.5879 6.70516 11.0667 9.77491 10.8017 11.1918C10.6904 11.7913 10.4692 11.9923 10.2554 12.0119C9.79043 12.0547 9.43793 11.7049 8.98793 11.41C8.28418 10.9484 7.88668 10.6612 7.20293 10.2108C6.41293 9.69029 6.92543 9.40416 7.37543 8.93666C7.49293 8.81429 9.54043 6.95241 9.57918 6.78354C9.58418 6.76241 9.58918 6.68366 9.54168 6.64216C9.49543 6.60054 9.42668 6.61479 9.37668 6.62604C9.30543 6.64204 8.18168 7.38554 6.00168 8.85641C5.68293 9.07566 5.39418 9.18254 5.13418 9.17691C4.84918 9.17079 4.29918 9.01541 3.89043 8.88266C3.39043 8.71979 2.99168 8.63366 3.02668 8.35704C3.04418 8.21304 3.24293 8.06566 3.62168 7.91504Z" fill="#2C3E50"/>
</g>
<defs>
<clipPath id="clip0_18_513">
<rect width="16" height="16" fill="white"/>
</clipPath>
</defs>
</svg>
